Coordinates
version=1
nRows=19
nColumns=36
inDegrees=yes

Units are S.I. units (second, meters, Newtons, ...)
If the header above contains a line with 'inDegrees', this indicates whether rotational values are in degrees (yes) or radians (no).

endheader
time	pelvis_tilt	pelvis_list	pelvis_rotation	pelvis_tx	pelvis_ty	pelvis_tz	hip_flexion_r	hip_adduction_r	hip_rotation_r	knee_angle_r	knee_angle_r_beta	ankle_angle_r	subtalar_angle_r	mtp_angle_r	hip_flexion_l	hip_adduction_l	hip_rotation_l	knee_angle_l	knee_angle_l_beta	ankle_angle_l	subtalar_angle_l	mtp_angle_l	lumbar_extension	lumbar_bending	lumbar_rotation	arm_flex_r	arm_add_r	arm_rot_r	elbow_flex_r	pro_sup_r	arm_flex_l	arm_add_l	arm_rot_l	elbow_flex_l	pro_sup_l
      4.00000000	     -9.43168997	      5.82133738	     -4.19388801	      0.03221388	      0.71499061	      0.11186514	     53.34061352	     10.19801020	     -2.54266380	     81.76123062	      1.42700267	     35.40438006	    -20.95649827	     -7.49999987	     55.67544854	     -7.73369500	     -8.25885595	      0.31550723	      0.00550664	    -21.98248088	     -2.00721485	     -7.49999987	    -27.34991956	     -0.81255759	     -3.27207602	     64.44329937	      8.82641342	     67.63439464	    130.01003066	     88.10085500	     74.99924467	     21.49463610	     66.43145441	    124.37024621	     73.71334451
      4.01666670	     -9.41769689	      5.81097777	     -4.17388263	      0.03137997	      0.71711583	      0.11185518	     53.29754311	     10.07227147	     -2.57863339	     81.50885501	      1.42259789	     34.85258409	    -20.76541682	     -7.49999987	     55.59676387	     -7.64529085	     -8.93490952	      0.31903476	      0.00556821	    -22.59221965	     -2.17891867	     -7.49999987	    -27.35272318	     -0.63185299	     -3.07657410	     64.56962476	      8.78044018	     67.57035326	    130.04281330	     88.15713757	     75.03052923	     21.53274582	     66.30897746	    124.26547846	     73.73328539
      4.03333330	     -9.34967650	      5.91461691	     -3.99030223	      0.03167951	      0.71853202	      0.11206734	     52.91277821	      9.86422900	     -2.46373400	     80.87627573	      1.41155730	     34.45186433	    -20.88425844	     -7.49999987	     55.41458562	     -7.31732512	     -9.39494298	      0.31880526	      0.00556420	    -23.02147816	     -2.91193082	     -7.49999987	    -27.49587794	     -0.53661134	     -2.91973207	     64.82168961	      8.71799138	     67.45928488	    130.13076120	     89.88389360	     75.29942299	     21.79863021	     66.14424668	    124.16379544	     74.82069725
      4.05000000	     -9.30070927	      5.90213744	     -4.02978857	      0.03271818	      0.71832152	      0.11186925	     52.82743642	      9.82248218	     -2.44076594	     80.60945751	      1.40690044	     33.47978914	    -21.22767780	     -7.49999987	     55.24606696	     -7.28033280	     -9.54892044	      0.32453023	      0.00566412	    -23.57879503	     -3.26222534	     -7.49999987	    -27.53935918	     -0.39339077	     -3.06325185	     65.07076031	      8.94643690	     67.87982849	    130.30779983	     87.84804244	     75.90653025	     21.59712978	     65.82472361	    124.01877050	     73.94244853
      4.06666670	     -8.99162947	      5.87755462	     -3.97331390	      0.03402143	      0.72104337	      0.11247027	     52.37212505	      9.67882484	     -2.43177171	     80.19782383	      1.39971608	     32.69971744	    -21.29176634	     -7.49999987	     54.67242390	     -7.14073528	     -8.79796121	      0.36858981	      0.00643311	    -23.58216833	     -3.48688019	     -7.49999987	    -27.78493564	     -0.16893436	     -3.03921666	     65.56819326	      8.90064931	     68.33435656	    130.34325932	     84.30414872	     76.31232777	     21.63502241	     65.69936258	    124.05094563	     72.33299789
      4.08333330	     -8.96333337	      6.07856123	     -4.04510684	      0.03479142	      0.72374464	      0.11290337	     52.10829594	      9.31641762	     -2.41742840	     79.69728247	      1.39097998	     32.28365470	    -21.01486815	     -7.49999987	     54.35620005	     -6.99772587	     -8.90225256	      0.41366350	      0.00721979	    -23.11511250	     -3.63944637	     -7.49999987	    -27.53508889	     -0.34022767	     -3.17829109	     65.44159564	      9.00811122	     68.54338818	    130.20979071	     83.31053011	     76.01249663	     21.49905497	     65.60209509	    123.87925401	     71.86243190
      4.10000000	     -8.91519092	      6.27878851	     -4.14303182	      0.03587040	      0.72708585	      0.11283333	     51.89855850	      8.97512773	     -2.44812926	     79.37196371	      1.38530210	     31.95523113	    -20.77046774	     -7.49999987	     53.98715677	     -6.88746266	     -8.32631788	      0.46240312	      0.00807046	    -22.87460292	     -4.61374111	     -7.49999987	    -27.46023711	     -0.50319997	     -3.33695803	     65.17747258	      9.36405699	     68.73075797	    130.38292458	     90.54488981	     75.79245744	     21.60992202	     65.68966954	    123.91034786	     75.30173445
      4.11666670	     -8.40611958	      6.19655572	     -4.19054381	      0.03934921	      0.73436431	      0.11606553	     50.79557325	      8.81366799	     -2.63957619	     78.52503069	      1.37052033	     31.08679765	    -20.44736155	     -7.49999987	     53.05166329	     -6.97932646	     -8.16594040	      0.51158540	      0.00892885	    -22.43491358	     -4.18291873	     -7.49999987	    -27.51150179	     -0.57414521	     -3.31780437	     64.29255228	      9.44309779	     68.35942757	    130.40388870	     90.93207407	     75.48264479	     21.61579979	     66.02321456	    123.97291590	     75.02295103
      4.13333330	     -8.40565846	      6.36116014	     -4.35727174	      0.03791110	      0.73892741	      0.11493120	     50.21980806	      8.48022391	     -2.73540547	     77.53023428	      1.35315786	     30.67465045	    -20.04161194	     -7.49999987	     52.90454689	     -6.92581848	     -8.46308971	      0.54591356	      0.00952799	    -22.20694184	     -4.55454173	     -7.49999987	    -27.09032454	     -0.78563199	     -3.37343472	     64.00241668	      9.55043074	     68.26978381	    130.39200280	     90.93275979	     75.66233248	     21.51713024	     66.02678841	    123.97608905	     75.01913811
      4.15000000	     -8.31768924	      6.53886152	     -4.57481160	      0.04019006	      0.74550135	      0.11607533	     49.41279825	      8.15266827	     -2.78438370	     76.30971993	      1.33185586	     30.16641317	    -19.54008314	     -7.49999987	     52.45438095	     -6.99892527	     -8.68185203	      0.58336154	      0.01018158	    -22.30330468	     -5.07072370	     -7.49999987	    -26.81549954	     -1.08291050	     -3.45425632	     63.06826019	      9.82366942	     68.23508376	    130.30870500	     90.94846073	     75.63308931	     21.12848145	     66.26770629	    123.89493443	     75.01253489
      4.16666670	     -8.21114259	      6.64567179	     -4.48264959	      0.04347447	      0.75002534	      0.11686041	     48.61766417	      7.61731275	     -2.95688979	     74.99103224	      1.30884042	     29.39163774	    -19.22111569	     -7.49999987	     52.15261844	     -6.86918227	     -7.78111498	      0.58716653	      0.01024799	    -21.77677053	     -6.76882461	     -7.49999987	    -26.24882789	     -1.22025868	     -3.64790729	     62.32496959	     10.04372290	     67.84485888	    129.99506250	     91.84482583	     75.42338985	     20.78628176	     66.59830259	    123.71863581	     75.02283369
      4.18333330	     -8.44023492	      6.77813213	     -4.21431237	      0.04475851	      0.75622564	      0.11746317	     47.67643030	      7.10510491	     -3.13888593	     73.17671025	      1.27717453	     28.50527054	    -18.88215392	     -7.49999987	     52.29281230	     -6.54870583	     -7.63886210	      0.60284032	      0.01052155	    -20.71110643	     -7.63897402	     -7.49999987	    -25.48719468	     -1.28227528	     -3.75597982	     61.91121776	     10.05009752	     68.14595124	    129.90960171	     92.09601156	     74.81217081	     20.87171353	     66.99097134	    123.76380873	     75.10054817
      4.20000000	     -8.46516366	      6.61088039	     -3.86864070	      0.04427854	      0.76586957	      0.11886623	     46.31228199	      6.84669907	     -3.43735342	     70.89335273	      1.23732242	     27.79547970	    -18.57131669	     -7.49999987	     52.20278043	     -6.43273713	     -8.02672561	      0.57687904	      0.01006844	    -20.37059500	     -7.51569166	     -7.49999987	    -25.09070583	     -0.98816234	     -3.63050231	     61.18622358	     10.01166519	     68.22028331	    129.88024488	     92.10773125	     74.52987748	     21.08530822	     67.42607176	    123.87709923	     75.06119841
      4.21666670	     -8.45648534	      6.54270781	     -3.66340490	      0.04886572	      0.77295521	      0.12047576	     45.03010110	      6.63118444	     -3.54889257	     69.02030931	      1.20463165	     26.99984439	    -17.82187447	     -7.49999987	     52.02345800	     -6.45453897	     -8.15733722	      0.56537323	      0.00986762	    -19.67703427	     -7.70223980	     -7.49999987	    -24.68379908	     -1.00071986	     -3.94012950	     60.39392495	     10.24506605	     68.20540291	    129.96101642	     92.12580049	     74.25180470	     20.91755284	     67.50475806	    123.79329119	     75.00621967
      4.23333330	     -8.55707348	      6.50730682	     -3.27798507	      0.05087910	      0.78101243	      0.12086511	     44.01954382	      6.29246166	     -3.71810980	     66.98095298	      1.16903817	     26.11700563	    -17.51591026	     -7.49999987	     51.98836278	     -6.26185126	     -7.98361779	      0.59340001	      0.01035678	    -19.66212880	     -7.41855629	     -7.49999987	    -24.34364102	     -0.86767068	     -4.21598411	     59.81711184	     10.47232692	     68.29334312	    129.99119736	     92.17375940	     73.91004336	     21.03210591	     67.86293159	    124.02127232	     74.94161595
      4.25000000	     -8.35700216	      6.31260613	     -2.64531029	      0.05107023	      0.79210989	      0.12305660	     42.37957285	      6.03933883	     -4.20840085	     64.36717975	      1.12341922	     25.13766397	    -17.78559037	     -7.49999987	     51.73677927	     -6.09209689	     -8.27782221	      0.57260083	      0.00999377	    -20.13948139	     -6.34966827	     -7.49999987	    -24.04391613	     -0.54698996	     -4.28926906	     59.17090272	     10.44604866	     68.34114104	    129.90854743	     92.26557377	     73.98911964	     21.04972050	     68.34990248	    124.03402758	     74.68790271
      4.26666670	     -8.05994498	      6.20332071	     -2.65571617	      0.05554371	      0.80116578	      0.12336677	     40.48266391	      5.98004860	     -4.63369907	     61.90389220	      1.08042674	     24.16859367	    -18.24303801	     -7.49999987	     51.26004904	     -6.26050946	     -7.61998016	      0.50663378	      0.00884243	    -21.23215977	     -4.97773107	     -7.49999987	    -23.65600374	     -0.44050436	     -3.92244823	     58.81025892	     10.39209257	     68.26526876	    129.79880837	     92.27807426	     73.51188645	     21.41004984	     68.87694097	    124.11876070	     74.51612629
      4.28333330	     -7.61784679	      6.06247804	     -2.97548118	      0.05635855	      0.81325722	      0.12320899	     38.27518854	      6.14427296	     -4.59116014	     59.20740174	      1.03336410	     23.22965732	    -18.23182540	     -7.49999987	     50.71835978	     -6.52720565	     -7.53867578	      0.41559727	      0.00725354	    -21.91297810	     -3.84247956	     -7.49999987	    -23.51727229	     -0.33397013	     -3.43775924	     57.93445293	     10.49193393	     68.25024484	    129.79855726	     92.27362690	     73.14867039	     21.52597141	     69.26751678	    124.17770275	     74.35412419
      4.30000000	     -7.16571204	      6.12852981	     -3.46000042	      0.05615926	      0.82101982	      0.12306005	     36.63495628	      6.11169588	     -4.46269945	     57.07870851	      0.99621140	     22.18180505	    -18.67006995	     -7.49999987	     50.12144615	     -6.77407669	     -7.47854183	      0.37265182	      0.00650400	    -21.64143610	     -3.41063536	     -7.49999987	    -23.47896027	     -0.51759694	     -3.22240916	     57.38480583	     10.65944346	     67.58292038	    129.78639225	     92.23235300	     73.50392097	     21.34774628	     69.30666044	    124.20444456	     74.07611991
